<svg width="38" height="38" viewBox="0 0 38 38" fill="none" xmlns="http://www.w3.org/2000/svg">
<circle cx="18.8319" cy="18.8319" r="18.8319" fill="#39C6B5"/>
<mask id="mask0_479_917" style="mask-type:luminance" maskUnits="userSpaceOnUse" x="9" y="16" width="20" height="13">
<path fill-rule="evenodd" clip-rule="evenodd" d="M9.83371 16.061H28.1667V28.6597H9.83371V16.061Z" fill="white"/>
</mask>
<g mask="url(#mask0_479_917)">
<path fill-rule="evenodd" clip-rule="evenodd" d="M24.1016 28.6597H13.8991C11.6579 28.6597 9.83371 26.8365 9.83371 24.5943V20.1255C9.83371 17.8843 11.6579 16.061 13.8991 16.061H14.7544C15.1339 16.061 15.4419 16.369 15.4419 16.7485C15.4419 17.128 15.1339 17.436 14.7544 17.436H13.8991C12.415 17.436 11.2087 18.6424 11.2087 20.1255V24.5943C11.2087 26.0784 12.415 27.2847 13.8991 27.2847H24.1016C25.5848 27.2847 26.792 26.0784 26.792 24.5943V20.1173C26.792 18.6387 25.5894 17.436 24.1117 17.436H23.2473C22.8678 17.436 22.5598 17.128 22.5598 16.7485C22.5598 16.369 22.8678 16.061 23.2473 16.061H24.1117C26.3475 16.061 28.167 17.8806 28.167 20.1173V24.5943C28.167 26.8365 26.3429 28.6597 24.1016 28.6597Z" fill="white"/>
</g>
<mask id="mask1_479_917" style="mask-type:luminance" maskUnits="userSpaceOnUse" x="18" y="9" width="2" height="14">
<path fill-rule="evenodd" clip-rule="evenodd" d="M18.3125 9.8335H19.6875V22.246H18.3125V9.8335Z" fill="white"/>
</mask>
<g mask="url(#mask1_479_917)">
<path fill-rule="evenodd" clip-rule="evenodd" d="M19 22.2461C18.6205 22.2461 18.3125 21.9381 18.3125 21.5586V10.521C18.3125 10.1415 18.6205 9.8335 19 9.8335C19.3795 9.8335 19.6875 10.1415 19.6875 10.521V21.5586C19.6875 21.9381 19.3795 22.2461 19 22.2461Z" fill="white"/>
</g>
<path fill-rule="evenodd" clip-rule="evenodd" d="M16.3279 13.8928C16.1528 13.8928 15.9768 13.8259 15.843 13.692C15.5744 13.4244 15.5726 12.9899 15.8412 12.7204L18.5133 10.0364C18.7708 9.77694 19.2292 9.77694 19.4868 10.0364L22.1598 12.7204C22.4274 12.9899 22.4265 13.4244 22.1579 13.692C21.8884 13.9597 21.4539 13.9597 21.1863 13.6902L19 11.4957L16.8147 13.6902C16.6808 13.8259 16.5039 13.8928 16.3279 13.8928Z" fill="white"/>
</svg>
